<svg width="40" height="40" viewBox="0 0 40 40" fill="none" xmlns="http://www.w3.org/2000/svg">
<rect width="40" height="40" rx="20" fill="#BBBBBB"/>
<path fill-rule="evenodd" clip-rule="evenodd" d="M32.3394 20.2953C32.3394 19.3735 32.2566 18.4871 32.103 17.6362H19.8594V22.6649H26.8557C26.5544 24.2899 25.6385 25.6667 24.2616 26.5885V29.8503H28.463C30.9212 27.5871 32.3394 24.2544 32.3394 20.2953Z" fill="white"/>
<path fill-rule="evenodd" clip-rule="evenodd" d="M19.8595 33.0002C23.3695 33.0002 26.3122 31.8361 28.4631 29.8507L24.2617 26.5889C23.0976 27.3688 21.6085 27.8298 19.8595 27.8298C16.4735 27.8298 13.6076 25.5429 12.5854 22.4702H8.24219V25.8384C10.3813 30.087 14.7776 33.0002 19.8595 33.0002Z" fill="white"/>
<path fill-rule="evenodd" clip-rule="evenodd" d="M12.5853 22.4698C12.3253 21.6898 12.1776 20.8566 12.1776 19.9998C12.1776 19.143 12.3253 18.3098 12.5853 17.5298V14.1616H8.2421C7.36165 15.9166 6.85938 17.9021 6.85938 19.9998C6.85938 22.0975 7.36165 24.083 8.2421 25.838L12.5853 22.4698Z" fill="white"/>
<path fill-rule="evenodd" clip-rule="evenodd" d="M19.8595 12.1705C21.7681 12.1705 23.4817 12.8264 24.829 14.1145L28.5576 10.3859C26.3063 8.28818 23.3635 7 19.8595 7C14.7776 7 10.3813 9.91318 8.24219 14.1618L12.5854 17.53C13.6076 14.4573 16.4735 12.1705 19.8595 12.1705Z" fill="white"/>
</svg>
